<svg width="64" height="64" viewBox="0 0 64 64" fill="none" xmlns="http://www.w3.org/2000/svg">
  <rect width="64" height="64" rx="20" fill="#FF4337"/>
  <path d="M18 22.5C18 19.4624 20.4624 17 23.5 17H40.5C43.5376 17 46 19.4624 46 22.5V41.5C46 44.5376 43.5376 47 40.5 47H23.5C20.4624 47 18 44.5376 18 41.5V22.5Z" fill="white" fill-opacity="0.12"/>
  <path d="M22 25.5C22 22.4624 24.4624 20 27.5 20H36.5C39.5376 20 42 22.4624 42 25.5V38.5C42 41.5376 39.5376 44 36.5 44H27.5C24.4624 44 22 41.5376 22 38.5V25.5Z" fill="white"/>
  <path d="M29.5 26.75L38 32L29.5 37.25V26.75Z" fill="#FF4337"/>
  <rect x="24" y="46.5" width="16" height="2.5" rx="1.25" fill="white" fill-opacity="0.9"/>
  <rect x="19" y="51" width="26" height="2.5" rx="1.25" fill="white" fill-opacity="0.55"/>
</svg>
